<?xml version="1.0" encoding="UTF-8" standalone="no"?>
<!DOCTYPE svg PUBLIC "-//W3C//DTD SVG 1.1//EN"
 "http://www.w3.org/Graphics/SVG/1.1/DTD/svg11.dtd">
<!-- Generated by graphviz version 2.40.1 (20161225.0304)
 -->
<!-- Title: ml Pages: 1 -->
<svg width="1576pt" height="757pt"
 viewBox="0.00 0.00 1576.01 757.00" xmlns="http://www.w3.org/2000/svg" xmlns:xlink="http://www.w3.org/1999/xlink">
<g id="graph0" class="graph" transform="scale(1 1) rotate(0) translate(4 753)">
<title>ml</title>
<polygon fill="#ffffff" stroke="transparent" points="-4,4 -4,-753 1572.0112,-753 1572.0112,4 -4,4"/>
<!-- ndItem -->
<g id="node1" class="node">
<title>ndItem</title>
<polygon fill="none" stroke="#000000" points="375.1104,-102.5 375.1104,-160.5 687.4824,-160.5 687.4824,-102.5 375.1104,-102.5"/>
<text text-anchor="middle" x="531.2964" y="-145.3" font-family="Times,serif" font-size="14.00" fill="#000000">&lt;&lt;&lt;Structure&gt;&gt;&gt;</text>
<text text-anchor="middle" x="531.2964" y="-131.3" font-family="Times,serif" font-size="14.00" fill="#000000">Item</text>
<polyline fill="none" stroke="#000000" points="375.1104,-124.5 687.4824,-124.5 "/>
<text text-anchor="middle" x="531.2964" y="-109.3" font-family="Times,serif" font-size="14.00" fill="#000000">&#45; it: iter::Peekable&lt;slice::Iter&lt;&#39;a, ptr::P&lt;ast::Item&gt;&gt;&gt;</text>
</g>
<!-- ndListItem -->
<g id="node10" class="node">
<title>ndListItem</title>
<polygon fill="none" stroke="#000000" points="657.9512,-.5 657.9512,-58.5 772.6416,-58.5 772.6416,-.5 657.9512,-.5"/>
<text text-anchor="middle" x="715.2964" y="-43.3" font-family="Times,serif" font-size="14.00" fill="#000000">&lt;&lt;&lt;Structure&gt;&gt;&gt;</text>
<text text-anchor="middle" x="715.2964" y="-29.3" font-family="Times,serif" font-size="14.00" fill="#000000">ListItem</text>
<polyline fill="none" stroke="#000000" points="657.9512,-22.5 772.6416,-22.5 "/>
<text text-anchor="middle" x="715.2964" y="-7.3" font-family="Times,serif" font-size="14.00" fill="#000000">&#45; parse: Item&lt;&#39;a&gt;</text>
</g>
<!-- ndItem&#45;&gt;ndListItem -->
<g id="edge1" class="edge">
<title>ndItem&#45;&gt;ndListItem</title>
<path fill="none" stroke="#000000" d="M584.0234,-102.2709C605.2872,-90.4833 629.9969,-76.7856 652.2049,-64.4746"/>
<polygon fill="#000000" stroke="#000000" points="652.3847,-64.375 655.693,-57.9675 662.88,-58.5569 659.5717,-64.9644 652.3847,-64.375"/>
</g>
<!-- ndRelation -->
<g id="node2" class="node">
<title>ndRelation</title>
<polygon fill="none" stroke="#000000" points="144.0576,-461.5 144.0576,-611.5 346.5352,-611.5 346.5352,-461.5 144.0576,-461.5"/>
<text text-anchor="middle" x="245.2964" y="-596.3" font-family="Times,serif" font-size="14.00" fill="#000000">&lt;&lt;&lt;Enumeration&gt;&gt;&gt;</text>
<text text-anchor="middle" x="245.2964" y="-582.3" font-family="Times,serif" font-size="14.00" fill="#000000">Relation</text>
<polyline fill="none" stroke="#000000" points="144.0576,-575.5 346.5352,-575.5 "/>
<text text-anchor="middle" x="245.2964" y="-560.3" font-family="Times,serif" font-size="14.00" fill="#000000">Association</text>
<text text-anchor="middle" x="245.2964" y="-546.3" font-family="Times,serif" font-size="14.00" fill="#000000">Aggregation</text>
<text text-anchor="middle" x="245.2964" y="-532.3" font-family="Times,serif" font-size="14.00" fill="#000000">Composition</text>
<text text-anchor="middle" x="245.2964" y="-518.3" font-family="Times,serif" font-size="14.00" fill="#000000">Realization</text>
<text text-anchor="middle" x="245.2964" y="-504.3" font-family="Times,serif" font-size="14.00" fill="#000000">Dependency</text>
<text text-anchor="middle" x="245.2964" y="-490.3" font-family="Times,serif" font-size="14.00" fill="#000000">None</text>
<polyline fill="none" stroke="#000000" points="144.0576,-483.5 346.5352,-483.5 "/>
<text text-anchor="middle" x="245.2964" y="-468.3" font-family="Times,serif" font-size="14.00" fill="#000000">+ as_style(&amp;self) &#45;&gt; ArrowShape</text>
</g>
<!-- ndItemState -->
<g id="node9" class="node">
<title>ndItemState</title>
<polygon fill="none" stroke="#000000" points="556.0991,-204.5 556.0991,-424.5 874.4937,-424.5 874.4937,-204.5 556.0991,-204.5"/>
<text text-anchor="middle" x="715.2964" y="-409.3" font-family="Times,serif" font-size="14.00" fill="#000000">&lt;&lt;&lt;Structure&gt;&gt;&gt;</text>
<text text-anchor="middle" x="715.2964" y="-395.3" font-family="Times,serif" font-size="14.00" fill="#000000">ItemState</text>
<polyline fill="none" stroke="#000000" points="556.0991,-388.5 874.4937,-388.5 "/>
<text text-anchor="middle" x="715.2964" y="-373.3" font-family="Times,serif" font-size="14.00" fill="#000000">&#45; node: Abstract&lt;&#39;a&gt;</text>
<text text-anchor="middle" x="715.2964" y="-359.3" font-family="Times,serif" font-size="14.00" fill="#000000">&#45; method: Vec&lt;Method&lt;&#39;a&gt;&gt;</text>
<text text-anchor="middle" x="715.2964" y="-345.3" font-family="Times,serif" font-size="14.00" fill="#000000">&#45; implem: Vec&lt;Implem&gt;</text>
<polyline fill="none" stroke="#000000" points="556.0991,-338.5 874.4937,-338.5 "/>
<text text-anchor="middle" x="715.2964" y="-323.3" font-family="Times,serif" font-size="14.00" fill="#000000">+ is_none(&amp;self) &#45;&gt; bool</text>
<text text-anchor="middle" x="715.2964" y="-309.3" font-family="Times,serif" font-size="14.00" fill="#000000">+ is_association(&amp;self, rhs: &amp;ItemState&lt;&#39;a&gt;) &#45;&gt; bool</text>
<text text-anchor="middle" x="715.2964" y="-295.3" font-family="Times,serif" font-size="14.00" fill="#000000">+ is_dependency(&amp;self, rhs: &amp;ItemState&lt;&#39;a&gt;) &#45;&gt; bool</text>
<text text-anchor="middle" x="715.2964" y="-281.3" font-family="Times,serif" font-size="14.00" fill="#000000">+ is_aggregation(&amp;self, rhs: &amp;ItemState&lt;&#39;a&gt;) &#45;&gt; bool</text>
<text text-anchor="middle" x="715.2964" y="-267.3" font-family="Times,serif" font-size="14.00" fill="#000000">+ is_composition(&amp;self, rhs: &amp;ItemState&lt;&#39;a&gt;) &#45;&gt; bool</text>
<text text-anchor="middle" x="715.2964" y="-253.3" font-family="Times,serif" font-size="14.00" fill="#000000">+ is_realization(&amp;self, rhs: &amp;ItemState&lt;&#39;a&gt;) &#45;&gt; bool</text>
<text text-anchor="middle" x="715.2964" y="-239.3" font-family="Times,serif" font-size="14.00" fill="#000000">+ is_relation(&amp;self, rhs: &amp;ItemState&lt;&#39;a&gt;) &#45;&gt; bool</text>
<text text-anchor="middle" x="715.2964" y="-225.3" font-family="Times,serif" font-size="14.00" fill="#000000">+ as_name(&amp;self) &#45;&gt; Option&lt;&amp;InternedString&gt;</text>
<text text-anchor="middle" x="715.2964" y="-211.3" font-family="Times,serif" font-size="14.00" fill="#000000">+ as_arrow(&amp;self, rhs: &amp;ItemState&lt;&#39;a&gt;) &#45;&gt; Relation</text>
</g>
<!-- ndRelation&#45;&gt;ndItemState -->
<g id="edge2" class="edge">
<title>ndRelation&#45;&gt;ndItemState</title>
<path fill="none" stroke="#000000" d="M346.6914,-465.7747C349.5695,-464.1328 352.4413,-462.5376 355.2964,-461 415.7609,-428.4379 485.0483,-398.6116 546.5867,-374.4925"/>
<polygon fill="#000000" stroke="#000000" points="556.0003,-370.8236 548.3171,-378.6478 551.3417,-372.6393 546.683,-374.455 546.683,-374.455 546.683,-374.455 551.3417,-372.6393 545.0488,-370.2622 556.0003,-370.8236 556.0003,-370.8236"/>
</g>
<!-- ndEnum -->
<g id="node3" class="node">
<title>ndEnum</title>
<polygon fill="none" stroke="#000000" points="0,-648.5 0,-748.5 332.5928,-748.5 332.5928,-648.5 0,-648.5"/>
<text text-anchor="middle" x="166.2964" y="-733.3" font-family="Times,serif" font-size="14.00" fill="#000000">&lt;&lt;&lt;Structure&gt;&gt;&gt;</text>
<text text-anchor="middle" x="166.2964" y="-719.3" font-family="Times,serif" font-size="14.00" fill="#000000">Enum</text>
<polyline fill="none" stroke="#000000" points="0,-712.5 332.5928,-712.5 "/>
<text text-anchor="middle" x="166.2964" y="-697.3" font-family="Times,serif" font-size="14.00" fill="#000000">+ vis: &amp;&#39;a ast::Visibility</text>
<text text-anchor="middle" x="166.2964" y="-683.3" font-family="Times,serif" font-size="14.00" fill="#000000">+ name: symbol::InternedString</text>
<text text-anchor="middle" x="166.2964" y="-669.3" font-family="Times,serif" font-size="14.00" fill="#000000">+ params: Vec&lt;symbol::InternedString&gt;</text>
<text text-anchor="middle" x="166.2964" y="-655.3" font-family="Times,serif" font-size="14.00" fill="#000000">+ variants: Vec&lt;(symbol::InternedString, Vec&lt;String&gt;)&gt;</text>
</g>
<!-- ndAbstract -->
<g id="node5" class="node">
<title>ndAbstract</title>
<polygon fill="none" stroke="#000000" points="364.3931,-475.5 364.3931,-597.5 696.1997,-597.5 696.1997,-475.5 364.3931,-475.5"/>
<text text-anchor="middle" x="530.2964" y="-582.3" font-family="Times,serif" font-size="14.00" fill="#000000">&lt;&lt;&lt;Enumeration&gt;&gt;&gt;</text>
<text text-anchor="middle" x="530.2964" y="-568.3" font-family="Times,serif" font-size="14.00" fill="#000000">Abstract</text>
<polyline fill="none" stroke="#000000" points="364.3931,-561.5 696.1997,-561.5 "/>
<text text-anchor="middle" x="530.2964" y="-546.3" font-family="Times,serif" font-size="14.00" fill="#000000">Trait(Trait&lt;&#39;a&gt;)</text>
<text text-anchor="middle" x="530.2964" y="-532.3" font-family="Times,serif" font-size="14.00" fill="#000000">Struct(Struct&lt;&#39;a&gt;)</text>
<text text-anchor="middle" x="530.2964" y="-518.3" font-family="Times,serif" font-size="14.00" fill="#000000">Enum(Enum&lt;&#39;a&gt;)</text>
<text text-anchor="middle" x="530.2964" y="-504.3" font-family="Times,serif" font-size="14.00" fill="#000000">None</text>
<polyline fill="none" stroke="#000000" points="364.3931,-497.5 696.1997,-497.5 "/>
<text text-anchor="middle" x="530.2964" y="-482.3" font-family="Times,serif" font-size="14.00" fill="#000000">+ as_name(&amp;self) &#45;&gt; Option&lt;&amp;symbol::InternedString&gt;</text>
</g>
<!-- ndEnum&#45;&gt;ndAbstract -->
<g id="edge3" class="edge">
<title>ndEnum&#45;&gt;ndAbstract</title>
<path fill="none" stroke="#000000" d="M278.9755,-648.3516C311.5695,-633.8455 347.6509,-617.7873 382.0632,-602.4719"/>
<polygon fill="#000000" stroke="#000000" points="382.2076,-602.4077 386.0628,-596.3136 393.1709,-597.5284 389.3157,-603.6225 382.2076,-602.4077"/>
</g>
<!-- ndTrait -->
<g id="node4" class="node">
<title>ndTrait</title>
<polygon fill="none" stroke="#000000" points="350.3794,-648.5 350.3794,-748.5 710.2134,-748.5 710.2134,-648.5 350.3794,-648.5"/>
<text text-anchor="middle" x="530.2964" y="-733.3" font-family="Times,serif" font-size="14.00" fill="#000000">&lt;&lt;&lt;Structure&gt;&gt;&gt;</text>
<text text-anchor="middle" x="530.2964" y="-719.3" font-family="Times,serif" font-size="14.00" fill="#000000">Trait</text>
<polyline fill="none" stroke="#000000" points="350.3794,-712.5 710.2134,-712.5 "/>
<text text-anchor="middle" x="530.2964" y="-697.3" font-family="Times,serif" font-size="14.00" fill="#000000">+ vis: &amp;&#39;a ast::Visibility</text>
<text text-anchor="middle" x="530.2964" y="-683.3" font-family="Times,serif" font-size="14.00" fill="#000000">+ name: symbol::InternedString</text>
<text text-anchor="middle" x="530.2964" y="-669.3" font-family="Times,serif" font-size="14.00" fill="#000000">+ params: Vec&lt;symbol::InternedString&gt;</text>
<text text-anchor="middle" x="530.2964" y="-655.3" font-family="Times,serif" font-size="14.00" fill="#000000">+ items: Vec&lt;(symbol::InternedString, Vec&lt;String&gt;, String)&gt;</text>
</g>
<!-- ndTrait&#45;&gt;ndAbstract -->
<g id="edge4" class="edge">
<title>ndTrait&#45;&gt;ndAbstract</title>
<path fill="none" stroke="#000000" d="M530.2964,-648.1302C530.2964,-636.0236 530.2964,-622.8465 530.2964,-609.9284"/>
<polygon fill="#000000" stroke="#000000" points="530.2965,-609.6659 526.2964,-603.6659 530.2964,-597.6659 534.2964,-603.6659 530.2965,-609.6659"/>
</g>
<!-- ndAbstract&#45;&gt;ndItemState -->
<g id="edge5" class="edge">
<title>ndAbstract&#45;&gt;ndItemState</title>
<path fill="none" stroke="#000000" d="M581.3382,-475.2499C592.1294,-462.3004 603.8697,-448.212 615.766,-433.9364"/>
<polygon fill="#000000" stroke="#000000" points="615.9155,-433.7571 616.6837,-426.587 623.5977,-424.5384 622.8295,-431.7085 615.9155,-433.7571"/>
</g>
<!-- ndStruct -->
<g id="node6" class="node">
<title>ndStruct</title>
<polygon fill="none" stroke="#000000" points="727.9502,-655.5 727.9502,-741.5 1114.6426,-741.5 1114.6426,-655.5 727.9502,-655.5"/>
<text text-anchor="middle" x="921.2964" y="-726.3" font-family="Times,serif" font-size="14.00" fill="#000000">&lt;&lt;&lt;Structure&gt;&gt;&gt;</text>
<text text-anchor="middle" x="921.2964" y="-712.3" font-family="Times,serif" font-size="14.00" fill="#000000">Struct</text>
<polyline fill="none" stroke="#000000" points="727.9502,-705.5 1114.6426,-705.5 "/>
<text text-anchor="middle" x="921.2964" y="-690.3" font-family="Times,serif" font-size="14.00" fill="#000000">+ vis: &amp;&#39;a ast::Visibility</text>
<text text-anchor="middle" x="921.2964" y="-676.3" font-family="Times,serif" font-size="14.00" fill="#000000">+ name: symbol::InternedString</text>
<text text-anchor="middle" x="921.2964" y="-662.3" font-family="Times,serif" font-size="14.00" fill="#000000">+ fields: Vec&lt;(&amp;&#39;a ast::Visibility, symbol::InternedString, String)&gt;</text>
</g>
<!-- ndStruct&#45;&gt;ndAbstract -->
<g id="edge6" class="edge">
<title>ndStruct&#45;&gt;ndAbstract</title>
<path fill="none" stroke="#000000" d="M812.2917,-655.4973C777.9751,-641.7853 739.984,-626.4252 705.2964,-612 697.7168,-608.8479 689.9628,-605.5978 682.1393,-602.2981"/>
<polygon fill="#000000" stroke="#000000" points="682.0955,-602.2796 675.0113,-603.6264 671.0433,-597.6051 678.1276,-596.2583 682.0955,-602.2796"/>
</g>
<!-- ndImplem -->
<g id="node7" class="node">
<title>ndImplem</title>
<polygon fill="none" stroke="#000000" points="714.3281,-475.5 714.3281,-597.5 1088.2646,-597.5 1088.2646,-475.5 714.3281,-475.5"/>
<text text-anchor="middle" x="901.2964" y="-582.3" font-family="Times,serif" font-size="14.00" fill="#000000">&lt;&lt;&lt;Structure&gt;&gt;&gt;</text>
<text text-anchor="middle" x="901.2964" y="-568.3" font-family="Times,serif" font-size="14.00" fill="#000000">Implem</text>
<polyline fill="none" stroke="#000000" points="714.3281,-561.5 1088.2646,-561.5 "/>
<text text-anchor="middle" x="901.2964" y="-546.3" font-family="Times,serif" font-size="14.00" fill="#000000">&#45; ty: Vec&lt;(InternedString, Vec&lt;String&gt;)&gt;</text>
<text text-anchor="middle" x="901.2964" y="-532.3" font-family="Times,serif" font-size="14.00" fill="#000000">&#45; method: Vec&lt;(InternedString, Vec&lt;String&gt;, Option&lt;String&gt;)&gt;</text>
<polyline fill="none" stroke="#000000" points="714.3281,-525.5 1088.2646,-525.5 "/>
<text text-anchor="middle" x="901.2964" y="-510.3" font-family="Times,serif" font-size="14.00" fill="#000000">+ is_realization(&amp;self, ty_name: &amp;String) &#45;&gt; bool</text>
<text text-anchor="middle" x="901.2964" y="-496.3" font-family="Times,serif" font-size="14.00" fill="#000000">+ is_association(&amp;self, ty_name: &amp;String) &#45;&gt; bool</text>
<text text-anchor="middle" x="901.2964" y="-482.3" font-family="Times,serif" font-size="14.00" fill="#000000">+ is_dependency(&amp;self, _: &amp;String) &#45;&gt; bool</text>
</g>
<!-- ndImplem&#45;&gt;ndItemState -->
<g id="edge7" class="edge">
<title>ndImplem&#45;&gt;ndItemState</title>
<path fill="none" stroke="#000000" d="M849.9787,-475.2499C839.1292,-462.3004 827.3254,-448.212 815.3648,-433.9364"/>
<polygon fill="#000000" stroke="#000000" points="815.1974,-433.7367 808.278,-431.7064 807.4907,-424.5384 814.4101,-426.5686 815.1974,-433.7367"/>
</g>
<!-- ndMethod -->
<g id="node8" class="node">
<title>ndMethod</title>
<polygon fill="none" stroke="#000000" points="1106.5815,-489.5 1106.5815,-583.5 1568.0112,-583.5 1568.0112,-489.5 1106.5815,-489.5"/>
<text text-anchor="middle" x="1337.2964" y="-568.3" font-family="Times,serif" font-size="14.00" fill="#000000">&lt;&lt;&lt;Structure&gt;&gt;&gt;</text>
<text text-anchor="middle" x="1337.2964" y="-554.3" font-family="Times,serif" font-size="14.00" fill="#000000">Method</text>
<polyline fill="none" stroke="#000000" points="1106.5815,-547.5 1568.0112,-547.5 "/>
<text text-anchor="middle" x="1337.2964" y="-532.3" font-family="Times,serif" font-size="14.00" fill="#000000">&#45; func: Vec&lt;(&amp;&#39;a ast::Visibility, InternedString, Vec&lt;String&gt;, Option&lt;String&gt;)&gt;</text>
<polyline fill="none" stroke="#000000" points="1106.5815,-525.5 1568.0112,-525.5 "/>
<text text-anchor="middle" x="1337.2964" y="-510.3" font-family="Times,serif" font-size="14.00" fill="#000000">+ is_association(&amp;self, ty_name: &amp;String) &#45;&gt; bool</text>
<text text-anchor="middle" x="1337.2964" y="-496.3" font-family="Times,serif" font-size="14.00" fill="#000000">+ is_dependency(&amp;self, name: &amp;String) &#45;&gt; bool</text>
</g>
<!-- ndMethod&#45;&gt;ndItemState -->
<g id="edge8" class="edge">
<title>ndMethod&#45;&gt;ndItemState</title>
<path fill="none" stroke="#000000" d="M1205.3862,-489.4195C1112.3321,-456.2073 986.829,-411.4136 886.1232,-375.4703"/>
<polygon fill="#000000" stroke="#000000" points="885.8952,-375.389 878.8997,-377.1394 874.5935,-371.3552 881.5889,-369.6049 885.8952,-375.389"/>
</g>
<!-- ndItemState&#45;&gt;ndItem -->
<g id="edge9" class="edge">
<title>ndItemState&#45;&gt;ndItem</title>
<path fill="none" stroke="#000000" d="M604.5468,-204.3523C591.4367,-191.3135 578.8571,-178.8022 567.9349,-167.9394"/>
<polygon fill="#000000" stroke="#000000" points="560.652,-160.6961 570.9157,-164.5572 564.1972,-164.222 567.7423,-167.7479 567.7423,-167.7479 567.7423,-167.7479 564.1972,-164.222 564.569,-170.9385 560.652,-160.6961 560.652,-160.6961"/>
</g>
<!-- ndItemState&#45;&gt;ndListItem -->
<g id="edge10" class="edge">
<title>ndItemState&#45;&gt;ndListItem</title>
<path fill="none" stroke="#000000" d="M715.2964,-204.3116C715.2964,-156.6151 715.2964,-103.8206 715.2964,-68.8621"/>
<polygon fill="#000000" stroke="#000000" points="715.2964,-58.6109 719.7965,-68.6109 715.2964,-63.6109 715.2965,-68.6109 715.2965,-68.6109 715.2965,-68.6109 715.2964,-63.6109 710.7965,-68.6109 715.2964,-58.6109 715.2964,-58.6109"/>
</g>
<!-- ndSegment -->
<g id="node11" class="node">
<title>ndSegment</title>
<polygon fill="none" stroke="#000000" points="743.5952,-95.5 743.5952,-167.5 882.9976,-167.5 882.9976,-95.5 743.5952,-95.5"/>
<text text-anchor="middle" x="813.2964" y="-152.3" font-family="Times,serif" font-size="14.00" fill="#000000">&lt;&lt;&lt;Structure&gt;&gt;&gt;</text>
<text text-anchor="middle" x="813.2964" y="-138.3" font-family="Times,serif" font-size="14.00" fill="#000000">Segment</text>
<polyline fill="none" stroke="#000000" points="743.5952,-131.5 882.9976,-131.5 "/>
<text text-anchor="middle" x="813.2964" y="-116.3" font-family="Times,serif" font-size="14.00" fill="#000000">+ left: ItemState&lt;&#39;a&gt;</text>
<text text-anchor="middle" x="813.2964" y="-102.3" font-family="Times,serif" font-size="14.00" fill="#000000">+ right: ItemState&lt;&#39;a&gt;</text>
</g>
<!-- ndItemState&#45;&gt;ndSegment -->
<g id="edge11" class="edge">
<title>ndItemState&#45;&gt;ndSegment</title>
<path fill="none" stroke="#000000" d="M774.2826,-204.3523C779.1319,-195.297 783.8449,-186.4962 788.2205,-178.3253"/>
<polygon fill="#000000" stroke="#000000" points="788.2943,-178.1874 787.6007,-171.0098 793.9594,-167.6088 794.6531,-174.7865 788.2943,-178.1874"/>
</g>
<!-- ndSegment&#45;&gt;ndListItem -->
<g id="edge12" class="edge">
<title>ndSegment&#45;&gt;ndListItem</title>
<path fill="none" stroke="#000000" d="M778.4693,-95.2514C769.3531,-85.7631 759.5207,-75.5294 750.3906,-66.0266"/>
<polygon fill="#000000" stroke="#000000" points="743.2461,-58.5905 753.4193,-62.6838 746.7102,-62.196 750.1743,-65.8015 750.1743,-65.8015 750.1743,-65.8015 746.7102,-62.196 746.9294,-68.9193 743.2461,-58.5905 743.2461,-58.5905"/>
</g>
</g>
</svg>
